# xmcd
# 
# Track frame offsets:
#     150
#     27144
#     44602
#     61968
#     83842
#     104452
#     129028
#     150966
#     170264
#     195190
# 
# Disc length: 2898
# 
# Revision: 3
# Processed by: cddbd v1.5.2PL0 Copyright (c) Steve Scherf et al.
# Submitted via: fre:ac v1.0.17
# 
DISCID=6b0b500a
DTITLE=AAA - Eighth Wonder CD-1
DYEAR=2013
DGENRE=JPop
TTITLE0=Eighth Wonder (Album Version)
TTITLE1=PARTY IT UP
TTITLE2=I KNOW, YOU KNOW
TTITLE3=ALIVE
TTITLE4=Love Is In The Air
TTITLE5=恋音と雨空 (with Intro)
TTITLE6=Miss you
TTITLE7=ほほえみの咲く場所
TTITLE8=good day
TTITLE9=虹
EXTD=YEAR: 2013
EXTT0=
EXTT1=
EXTT2=
EXTT3=
EXTT4=
EXTT5=
EXTT6=
EXTT7=
EXTT8=
EXTT9=
PLAYORDER=
